<svg width="963" height="2071" viewBox="0 0 963 2071" fill="none" xmlns="http://www.w3.org/2000/svg">
<rect x="3" width="960" height="2070" fill="#4264D0"/>
<circle cx="106" cy="1146" r="50" fill="#23B59C" fill-opacity="0.7"/>
<path d="M3 2071C3 2044.48 13.5357 2019.04 32.2893 2000.29C51.043 1981.54 76.4783 1971 103 1971C129.522 1971 154.957 1981.54 173.711 2000.29C192.464 2019.04 203 2044.48 203 2071L103 2071L3 2071Z" fill="#23B59C" fill-opacity="0.7"/>
<path d="M963 1141C923.218 1141 885.064 1125.2 856.934 1097.07C828.804 1068.94 813 1030.78 813 991C813 951.218 828.804 913.064 856.934 884.934C885.064 856.804 923.218 841 963 841V991V1141Z" fill="#23B59C" fill-opacity="0.7"/>
<path d="M963 1781C909.957 1781 859.086 1759.93 821.579 1722.42C784.071 1684.91 763 1634.04 763 1581C763 1527.96 784.071 1477.09 821.579 1439.58C859.086 1402.07 909.957 1381 963 1381L963 1481C936.478 1481 911.043 1491.54 892.289 1510.29C873.536 1529.04 863 1554.48 863 1581C863 1607.52 873.536 1632.96 892.289 1651.71C911.043 1670.46 936.478 1681 963 1681L963 1781Z" fill="#23B59C" fill-opacity="0.7"/>
<circle cx="714.5" cy="1782.5" r="37.5" fill="#23B59C" fill-opacity="0.5"/>
<path d="M407.953 1845.95L585.295 1893.47L455.472 2023.29L407.953 1845.95Z" fill="#23B59C" fill-opacity="0.5"/>
<path d="M159.099 1528.03L125.477 1653.51L33.6215 1561.65L159.099 1528.03Z" fill="#23B59C" fill-opacity="0.5"/>
<path d="M554.132 1125.71L509.303 1293.01L386.829 1170.54L554.132 1125.71Z" fill="#23B59C" fill-opacity="0.5"/>
</svg>
