<svg width="37" height="36" viewBox="0 0 37 36" fill="none" xmlns="http://www.w3.org/2000/svg">
<path d="M23.3472 17.0227L19.823 25.0098C19.3976 25.982 18.1637 25.9499 17.7737 24.9616L13.739 14.813L11.6117 20.5743H4.93915L17.8801 35.5601C18.3836 36.1466 19.199 36.1466 19.7025 35.5601L32.6505 20.5743H24.9143L23.3472 17.0227ZM34.2318 3.37079L34.0616 3.16991C30.4098 -1.05664 24.4321 -1.05664 20.7732 3.16991L18.7948 5.468L16.8165 3.17795C13.1646 -1.05664 7.17989 -1.05664 3.52806 3.17795L3.35787 3.37079C-0.0954122 7.37236 -0.244322 13.7443 2.84023 18.003H10.1014L12.647 11.0766C13.0299 10.0401 14.3205 10.016 14.7317 11.0445L18.8587 21.4341L22.3332 13.5675C22.7516 12.6194 23.9429 12.6194 24.3612 13.5675L26.3183 18.003H34.7494C37.834 13.7443 37.6851 7.37236 34.2318 3.37079V3.37079Z" fill="white"/>
</svg>
