<svg width="36" height="36" viewBox="0 0 36 36" fill="none" xmlns="http://www.w3.org/2000/svg">
<path d="M22.5138 17.0227L19.0195 25.0098C18.5976 25.982 17.3743 25.9499 16.9876 24.9616L12.987 14.813L10.8778 20.5743H4.26173L17.093 35.5601C17.5922 36.1466 18.4008 36.1466 18.8999 35.5601L31.7383 20.5743H24.0676L22.5138 17.0227ZM33.3061 3.37079L33.1374 3.16991C29.5165 -1.05664 23.5895 -1.05664 19.9616 3.16991L18 5.468L16.0384 3.17795C12.4175 -1.05664 6.48348 -1.05664 2.8626 3.17795L2.69386 3.37079C-0.730163 7.37236 -0.87781 13.7443 2.18061 18.003H9.38019L11.9043 11.0766C12.2839 10.0401 13.5635 10.016 13.9713 11.0445L18.0633 21.4341L21.5084 13.5675C21.9232 12.6194 23.1044 12.6194 23.5192 13.5675L25.4597 18.003H33.8194C36.8778 13.7443 36.7302 7.37236 33.3061 3.37079Z" fill="#F4F4F8"/>
</svg>
