<svg width="1800" height="250" viewBox="0 0 1800 250" fill="none" xmlns="http://www.w3.org/2000/svg">
<rect width="1800" height="250" fill="#4264D0"/>
<g clip-path="url(#clip0_526_6)">
<path d="M1089.36 87.3554L1173.01 109.77L1111.77 171.007L1089.36 87.3554Z" fill="#23B59C"/>
<path d="M585.355 87.3554L669.007 109.77L607.77 171.007L585.355 87.3554Z" fill="#23B59C"/>
<path d="M1664.36 87.3553L1641.94 171.007L1580.7 109.77L1664.36 87.3553Z" fill="#23B59C"/>
<path d="M1725 250C1725 230.109 1732.9 211.032 1746.97 196.967C1761.03 182.902 1780.11 175 1800 175L1800 250L1725 250Z" fill="#23B59C"/>
<path d="M800 250C800 236.868 802.587 223.864 807.612 211.732C812.638 199.599 820.003 188.575 829.289 179.289C838.575 170.003 849.599 162.637 861.732 157.612C873.864 152.587 886.868 150 900 150C913.132 150 926.136 152.587 938.268 157.612C950.401 162.638 961.425 170.004 970.711 179.289C979.997 188.575 987.363 199.599 992.388 211.732C997.413 223.864 1000 236.868 1000 250L900 250L800 250Z" fill="#23B59C"/>
<path d="M1415 193C1415 220.614 1392.61 243 1365 243C1337.39 243 1315 220.614 1315 193C1315 165.386 1337.39 143 1365 143C1392.61 143 1415 165.386 1415 193ZM1327.5 193C1327.5 213.711 1344.29 230.5 1365 230.5C1385.71 230.5 1402.5 213.711 1402.5 193C1402.5 172.289 1385.71 155.5 1365 155.5C1344.29 155.5 1327.5 172.289 1327.5 193Z" fill="#23B59C"/>
<path d="M950 57C950 84.6142 927.614 107 900 107C872.386 107 850 84.6142 850 57C850 29.3858 872.386 7 900 7C927.614 7 950 29.3858 950 57ZM862.5 57C862.5 77.7107 879.289 94.5 900 94.5C920.711 94.5 937.5 77.7107 937.5 57C937.5 36.2893 920.711 19.5 900 19.5C879.289 19.5 862.5 36.2893 862.5 57Z" fill="#23B59C"/>
<path d="M1465 0C1465 13.1322 1462.41 26.1358 1457.39 38.2684C1452.36 50.4009 1445 61.4248 1435.71 70.7107C1426.42 79.9966 1415.4 87.3625 1403.27 92.388C1391.14 97.4134 1378.13 100 1365 100C1351.87 100 1338.86 97.4134 1326.73 92.3879C1314.6 87.3624 1303.58 79.9965 1294.29 70.7106C1285 61.4248 1277.64 50.4008 1272.61 38.2683C1267.59 26.1357 1265 13.1321 1265 -0.00010411L1365 0H1465Z" fill="#23B59C"/>
</g>
<defs>
<clipPath id="clip0_526_6">
<rect width="1250" height="250" fill="white" transform="translate(550)"/>
</clipPath>
</defs>
</svg>
