<svg width="1920" height="1080" viewBox="0 0 1920 1080" fill="none" xmlns="http://www.w3.org/2000/svg">
<g clip-path="url(#clip0_2_4)">
<rect width="1920" height="1080" fill="#4264D0"/>
<path d="M-54.4751 797.619C-19.9241 790.029 16.3967 787.636 52.2657 790.585C88.1346 793.535 122.798 801.765 154.134 814.772C185.471 827.78 212.823 845.291 234.517 866.235C256.21 887.179 271.79 911.115 280.302 936.579C288.815 962.044 290.081 988.501 284.024 1014.33C277.967 1040.17 264.714 1064.83 245.075 1086.82C225.437 1108.8 199.825 1127.65 169.808 1142.2C139.79 1156.76 105.998 1166.72 70.4974 1171.46L49.7339 1089.69C69.911 1086.99 89.1174 1081.33 106.178 1073.06C123.239 1064.78 137.796 1054.07 148.957 1041.58C160.119 1029.08 167.652 1015.06 171.095 1000.38C174.537 985.699 173.818 970.661 168.979 956.188C164.141 941.715 155.286 928.111 142.956 916.207C130.626 904.303 115.081 894.351 97.2701 886.958C79.4594 879.565 59.7583 874.887 39.3717 873.211C18.9852 871.534 -1.6582 872.895 -21.2957 877.208L-54.4751 797.619Z" fill="#23B59C" fill-opacity="0.5"/>
<ellipse cx="1070.42" cy="32.4689" rx="44.2323" ry="32.1079" fill="#23B59C" fill-opacity="0.5"/>
<path d="M2086.79 51.0084C2086.79 157.405 1967.97 243.656 1821.39 243.656C1674.82 243.656 1556 157.405 1556 51.0084C1556 -55.3878 1674.82 -141.639 1821.39 -141.639C1967.97 -141.639 2086.79 -55.3878 2086.79 51.0084ZM1670.55 51.0084C1670.55 111.48 1738.09 160.502 1821.39 160.502C1904.7 160.502 1972.23 111.48 1972.23 51.0084C1972.23 -9.46318 1904.7 -58.4851 1821.39 -58.4851C1738.09 -58.4851 1670.55 -9.46318 1670.55 51.0084Z" fill="#23B59C" fill-opacity="0.5"/>
<path d="M1770 1080.36C1770 1040.58 1785.8 1002.43 1813.93 974.295C1842.06 946.165 1880.22 930.361 1920 930.361L1920 1080.36L1770 1080.36Z" fill="#23B59C" fill-opacity="0.5"/>
<path d="M125 0.361038C125 16.7763 121.767 33.0308 115.485 48.1965C109.203 63.3622 99.9957 77.1421 88.3884 88.7494C76.781 100.357 63.0011 109.564 47.8354 115.846C32.6697 122.128 16.4152 125.361 -7.62939e-06 125.361L0 0.361038H125Z" fill="#23B59C" fill-opacity="0.5"/>
</g>
<defs>
<clipPath id="clip0_2_4">
<rect width="1920" height="1080" fill="white"/>
</clipPath>
</defs>
</svg>
