<svg width="150" height="151" viewBox="0 0 150 151" fill="none" xmlns="http://www.w3.org/2000/svg">
<path d="M76.0491 0.368052C33.8708 -0.201606 -0.562717 34.2302 0.00696858 76.4066C0.569443 116.856 33.5066 149.791 73.9579 150.354C116.143 150.931 150.57 116.499 149.993 74.3226C149.438 33.8661 116.5 0.930499 76.0491 0.368052ZM121.631 118.356C121.488 118.511 121.312 118.633 121.116 118.713C120.92 118.792 120.708 118.828 120.497 118.817C120.286 118.806 120.08 118.748 119.893 118.649C119.706 118.549 119.544 118.41 119.417 118.24C116.192 114.021 112.243 110.409 107.753 107.572C98.5733 101.681 86.9417 98.4357 75.0035 98.4357C63.0654 98.4357 51.4337 101.681 42.2538 107.572C37.7644 110.407 33.8149 114.019 30.5897 118.237C30.463 118.406 30.3006 118.546 30.1139 118.645C29.9273 118.745 29.7211 118.802 29.5098 118.813C29.2985 118.824 29.0874 118.789 28.8915 118.709C28.6955 118.629 28.5195 118.507 28.3759 118.352C17.7958 106.931 11.8027 92.0083 11.5449 76.4426C10.9572 41.3582 39.7479 11.992 74.8485 11.9054C109.949 11.8189 138.462 40.3198 138.462 75.361C138.474 91.3021 132.462 106.659 121.631 118.356Z" fill="#747B8D"/>
<path d="M75.0033 34.9802C67.8931 34.9802 61.4643 37.6446 56.896 42.4867C52.3277 47.3288 50.0453 54.024 50.5609 61.2097C51.6065 75.361 62.5712 86.8984 75.0033 86.8984C87.4354 86.8984 98.3784 75.361 99.4457 61.2133C99.9793 54.0962 97.715 47.4622 93.071 42.5299C88.4846 37.6626 82.0667 34.9802 75.0033 34.9802Z" fill="#747B8D"/>
</svg>
